<svg width="18" height="18" viewBox="0 0 24 24" fill="none" xmlns="http://www.w3.org/2000/svg">
  <path d="M12 21C16.9706 21 21 16.9706 21 12C21 7.02944 16.9706 3 12 3C7.02944 3 3 7.02944 3 12C3 16.9706 7.02944 21 12 21Z" stroke="currentColor" stroke-width="1.8"></path>
  <path d="M3.6 9H20.4" stroke="currentColor" stroke-width="1.8" stroke-linecap="round"></path>
  <path d="M3.6 15H20.4" stroke="currentColor" stroke-width="1.8" stroke-linecap="round"></path>
  <path d="M12 3C14.2 5.4 15.3 8.4 15.3 12C15.3 15.6 14.2 18.6 12 21" stroke="currentColor" stroke-width="1.8" stroke-linecap="round"></path>
  <path d="M12 3C9.8 5.4 8.7 8.4 8.7 12C8.7 15.6 9.8 18.6 12 21" stroke="currentColor" stroke-width="1.8" stroke-linecap="round"></path>
</svg>